<mxfile host="app.diagrams.net" modified="2021-12-24T14:53:08.323Z" agent="5.0 (Windows NT 10.0; Win64; x64) AppleWebKit/537.36 (KHTML, like Gecko) Chrome/77.0.3865.90 Safari/537.36" etag="W5Szhoeu6wRg0s7F989y" version="14.3.0" type="github" pages="3">
  <diagram id="jJM8t7VpjfBQ1kiy5MXA" name="design">
    <mxGraphModel dx="2062" dy="1122" grid="1" gridSize="10" guides="1" tooltips="1" connect="1" arrows="1" fold="1" page="1" pageScale="1" pageWidth="827" pageHeight="1169" math="0" shadow="0">
      <root>
        <mxCell id="3dn0M0mym75tKTMuU3q_-0" />
        <mxCell id="3dn0M0mym75tKTMuU3q_-1" parent="3dn0M0mym75tKTMuU3q_-0" />
        <mxCell id="3dn0M0mym75tKTMuU3q_-5" value="QueueService" style="outlineConnect=0;dashed=0;verticalLabelPosition=bottom;verticalAlign=top;align=center;html=1;shape=mxgraph.aws3.queue;fontFamily=Comic Sans MS;fontStyle=1;fontSize=11;labelBorderColor=none;labelBackgroundColor=none;fillColor=#f8cecc;strokeColor=#b85450;fontColor=#7EA6E0;shadow=1;sketch=1;" parent="3dn0M0mym75tKTMuU3q_-1" vertex="1">
          <mxGeometry x="316" y="113.25" width="60" height="22.5" as="geometry" />
        </mxCell>
        <mxCell id="qU0AhAhZVoedQfFcDOPp-2" value="search" style="edgeStyle=orthogonalEdgeStyle;orthogonalLoop=1;jettySize=auto;html=1;fontFamily=Comic Sans MS;fontSize=11;fontColor=#7EA6E0;strokeWidth=2;endArrow=classic;endFill=0;gradientColor=#7ea6e0;fillColor=#dae8fc;strokeColor=#6c8ebf;shadow=1;sketch=1;rounded=0;" parent="3dn0M0mym75tKTMuU3q_-1" source="3dn0M0mym75tKTMuU3q_-6" target="3dn0M0mym75tKTMuU3q_-10" edge="1">
          <mxGeometry relative="1" as="geometry" />
        </mxCell>
        <mxCell id="3dn0M0mym75tKTMuU3q_-6" value="Client" style="shadow=1;dashed=0;html=1;strokeColor=none;fillColor=#4495D1;labelPosition=center;verticalLabelPosition=bottom;verticalAlign=top;align=center;outlineConnect=0;shape=mxgraph.veeam.2d.web_console;fontFamily=Comic Sans MS;fontStyle=1;fontSize=11;labelBorderColor=none;labelBackgroundColor=none;fontColor=#7EA6E0;sketch=1;" parent="3dn0M0mym75tKTMuU3q_-1" vertex="1">
          <mxGeometry x="626" y="102.89999999999992" width="44.8" height="44.8" as="geometry" />
        </mxCell>
        <mxCell id="qU0AhAhZVoedQfFcDOPp-1" value="pull" style="edgeStyle=orthogonalEdgeStyle;rounded=0;orthogonalLoop=1;jettySize=auto;html=1;fontFamily=Comic Sans MS;fontSize=11;fontColor=#7EA6E0;endArrow=classic;endFill=0;strokeWidth=2;gradientColor=#7ea6e0;fillColor=#dae8fc;strokeColor=#6c8ebf;shadow=1;sketch=1;" parent="3dn0M0mym75tKTMuU3q_-1" source="3dn0M0mym75tKTMuU3q_-10" target="3dn0M0mym75tKTMuU3q_-5" edge="1">
          <mxGeometry relative="1" as="geometry" />
        </mxCell>
        <mxCell id="3dn0M0mym75tKTMuU3q_-10" value="Server" style="pointerEvents=1;shadow=1;dashed=0;html=1;fillColor=#f8cecc;labelPosition=center;verticalLabelPosition=bottom;verticalAlign=top;outlineConnect=0;align=center;shape=mxgraph.office.concepts.application_web;fontFamily=Comic Sans MS;fontStyle=1;fontSize=11;labelBorderColor=none;labelBackgroundColor=none;strokeColor=#b85450;fontColor=#7EA6E0;sketch=1;" parent="3dn0M0mym75tKTMuU3q_-1" vertex="1">
          <mxGeometry x="476" y="100" width="56" height="49" as="geometry" />
        </mxCell>
        <mxCell id="qU0AhAhZVoedQfFcDOPp-0" value="push" style="edgeStyle=orthogonalEdgeStyle;rounded=0;orthogonalLoop=1;jettySize=auto;html=1;fontFamily=Comic Sans MS;fontSize=11;fontColor=#7EA6E0;endArrow=classic;endFill=0;gradientColor=#7ea6e0;fillColor=#dae8fc;strokeColor=#6c8ebf;strokeWidth=2;shadow=1;sketch=1;" parent="3dn0M0mym75tKTMuU3q_-1" source="3dn0M0mym75tKTMuU3q_-11" target="3dn0M0mym75tKTMuU3q_-5" edge="1">
          <mxGeometry relative="1" as="geometry" />
        </mxCell>
        <mxCell id="3dn0M0mym75tKTMuU3q_-11" value="WebCrawler" style="pointerEvents=1;shadow=1;dashed=0;html=1;fillColor=#f8cecc;labelPosition=center;verticalLabelPosition=bottom;verticalAlign=top;outlineConnect=0;align=center;shape=mxgraph.office.concepts.application_hybrid;fontFamily=Comic Sans MS;fontStyle=1;fontSize=11;labelBorderColor=none;labelBackgroundColor=none;strokeColor=#b85450;fontColor=#7EA6E0;sketch=1;" parent="3dn0M0mym75tKTMuU3q_-1" vertex="1">
          <mxGeometry x="156" y="102.89999999999998" width="59" height="44" as="geometry" />
        </mxCell>
      </root>
    </mxGraphModel>
  </diagram>
  <diagram id="RljgW_JT2A4vMLQAQi36" name="booleanfilter">
    <mxGraphModel dx="2062" dy="1122" grid="1" gridSize="10" guides="1" tooltips="1" connect="1" arrows="1" fold="1" page="1" pageScale="1" pageWidth="827" pageHeight="1169" math="0" shadow="0">
      <root>
        <mxCell id="RUXuNK1ZQrjjFl1TKabH-0" />
        <mxCell id="RUXuNK1ZQrjjFl1TKabH-1" parent="RUXuNK1ZQrjjFl1TKabH-0" />
        <mxCell id="2Ph8JsTVAdlHPG3FUb81-19" style="rounded=0;sketch=1;orthogonalLoop=1;jettySize=auto;html=1;shadow=1;endArrow=classic;endFill=0;strokeWidth=1;fontFamily=Comic Sans MS;fontSize=11;fontColor=#000000;fillColor=#cce5ff;strokeColor=#CC6600;" edge="1" parent="RUXuNK1ZQrjjFl1TKabH-1">
          <mxGeometry relative="1" as="geometry">
            <mxPoint x="310" y="460" as="targetPoint" />
            <mxPoint x="351" y="340" as="sourcePoint" />
          </mxGeometry>
        </mxCell>
        <mxCell id="2Ph8JsTVAdlHPG3FUb81-20" style="rounded=0;sketch=1;orthogonalLoop=1;jettySize=auto;html=1;shadow=1;endArrow=classic;endFill=0;strokeWidth=1;fontFamily=Comic Sans MS;fontSize=11;fontColor=#000000;fillColor=#cce5ff;strokeColor=#CC6600;" edge="1" parent="RUXuNK1ZQrjjFl1TKabH-1">
          <mxGeometry relative="1" as="geometry">
            <mxPoint x="400" y="460" as="targetPoint" />
            <mxPoint x="361" y="340" as="sourcePoint" />
          </mxGeometry>
        </mxCell>
        <mxCell id="2Ph8JsTVAdlHPG3FUb81-21" style="rounded=0;sketch=1;orthogonalLoop=1;jettySize=auto;html=1;shadow=1;endArrow=classic;endFill=0;strokeWidth=1;fontFamily=Comic Sans MS;fontSize=11;fontColor=#000000;fillColor=#cce5ff;strokeColor=#CC6600;" edge="1" parent="RUXuNK1ZQrjjFl1TKabH-1">
          <mxGeometry relative="1" as="geometry">
            <mxPoint x="430" y="460" as="targetPoint" />
            <mxPoint x="371" y="340" as="sourcePoint" />
          </mxGeometry>
        </mxCell>
        <mxCell id="2Ph8JsTVAdlHPG3FUb81-22" style="rounded=0;sketch=1;orthogonalLoop=1;jettySize=auto;html=1;shadow=1;endArrow=classic;endFill=0;strokeWidth=1;fontFamily=Comic Sans MS;fontSize=11;fontColor=#000000;fillColor=#cce5ff;strokeColor=#CC6600;" edge="1" parent="RUXuNK1ZQrjjFl1TKabH-1">
          <mxGeometry relative="1" as="geometry">
            <mxPoint x="370" y="460" as="targetPoint" />
            <mxPoint x="440" y="340" as="sourcePoint" />
          </mxGeometry>
        </mxCell>
        <mxCell id="2Ph8JsTVAdlHPG3FUb81-23" style="rounded=0;sketch=1;orthogonalLoop=1;jettySize=auto;html=1;shadow=1;endArrow=classic;endFill=0;strokeWidth=1;fontFamily=Comic Sans MS;fontSize=11;fontColor=#000000;fillColor=#cce5ff;strokeColor=#CC6600;" edge="1" parent="RUXuNK1ZQrjjFl1TKabH-1">
          <mxGeometry relative="1" as="geometry">
            <mxPoint x="410" y="460" as="targetPoint" />
            <mxPoint x="450" y="340" as="sourcePoint" />
          </mxGeometry>
        </mxCell>
        <mxCell id="2Ph8JsTVAdlHPG3FUb81-26" value="" style="group;shadow=1;sketch=1;fillColor=#ffff88;strokeColor=#CC6600;" vertex="1" connectable="0" parent="RUXuNK1ZQrjjFl1TKabH-1">
          <mxGeometry x="260" y="460" width="310" height="30" as="geometry" />
        </mxCell>
        <mxCell id="2Ph8JsTVAdlHPG3FUb81-16" value="" style="group;shadow=1;sketch=1;fillColor=#ffff88;strokeColor=#CC6600;" vertex="1" connectable="0" parent="2Ph8JsTVAdlHPG3FUb81-26">
          <mxGeometry width="280" height="30" as="geometry" />
        </mxCell>
        <mxCell id="RUXuNK1ZQrjjFl1TKabH-2" value="" style="endArrow=none;html=1;shadow=1;strokeWidth=1;fontFamily=Comic Sans MS;fontSize=11;sketch=1;fontStyle=1;fillColor=#ffff88;strokeColor=#CC6600;" edge="1" parent="2Ph8JsTVAdlHPG3FUb81-16">
          <mxGeometry width="50" height="50" relative="1" as="geometry">
            <mxPoint as="sourcePoint" />
            <mxPoint x="310" as="targetPoint" />
          </mxGeometry>
        </mxCell>
        <mxCell id="RUXuNK1ZQrjjFl1TKabH-3" value="" style="endArrow=none;html=1;shadow=1;strokeWidth=1;fontFamily=Comic Sans MS;fontSize=11;sketch=1;fontStyle=1;fillColor=#ffff88;strokeColor=#CC6600;" edge="1" parent="2Ph8JsTVAdlHPG3FUb81-16">
          <mxGeometry width="50" height="50" relative="1" as="geometry">
            <mxPoint y="30" as="sourcePoint" />
            <mxPoint x="310" y="30" as="targetPoint" />
          </mxGeometry>
        </mxCell>
        <mxCell id="2Ph8JsTVAdlHPG3FUb81-0" value="" style="endArrow=none;html=1;shadow=1;strokeWidth=1;fontFamily=Comic Sans MS;fontSize=11;sketch=1;fontStyle=1;fillColor=#ffff88;strokeColor=#CC6600;" edge="1" parent="2Ph8JsTVAdlHPG3FUb81-16">
          <mxGeometry width="50" height="50" relative="1" as="geometry">
            <mxPoint x="40" y="30" as="sourcePoint" />
            <mxPoint x="40" as="targetPoint" />
          </mxGeometry>
        </mxCell>
        <mxCell id="2Ph8JsTVAdlHPG3FUb81-1" value="" style="endArrow=none;html=1;shadow=1;strokeWidth=1;fontFamily=Comic Sans MS;fontSize=11;sketch=1;fontStyle=1;fillColor=#ffff88;strokeColor=#CC6600;" edge="1" parent="2Ph8JsTVAdlHPG3FUb81-16">
          <mxGeometry width="50" height="50" relative="1" as="geometry">
            <mxPoint x="70" y="30" as="sourcePoint" />
            <mxPoint x="70" as="targetPoint" />
          </mxGeometry>
        </mxCell>
        <mxCell id="2Ph8JsTVAdlHPG3FUb81-2" value="" style="endArrow=none;html=1;shadow=1;strokeWidth=1;fontFamily=Comic Sans MS;fontSize=11;sketch=1;fontStyle=1;fillColor=#ffff88;strokeColor=#CC6600;" edge="1" parent="2Ph8JsTVAdlHPG3FUb81-16">
          <mxGeometry width="50" height="50" relative="1" as="geometry">
            <mxPoint x="100" y="30" as="sourcePoint" />
            <mxPoint x="100" as="targetPoint" />
          </mxGeometry>
        </mxCell>
        <mxCell id="2Ph8JsTVAdlHPG3FUb81-3" value="" style="endArrow=none;html=1;shadow=1;strokeWidth=1;fontFamily=Comic Sans MS;fontSize=11;sketch=1;fontStyle=1;fillColor=#ffff88;strokeColor=#CC6600;" edge="1" parent="2Ph8JsTVAdlHPG3FUb81-16">
          <mxGeometry width="50" height="50" relative="1" as="geometry">
            <mxPoint x="130" y="30" as="sourcePoint" />
            <mxPoint x="130" as="targetPoint" />
          </mxGeometry>
        </mxCell>
        <mxCell id="2Ph8JsTVAdlHPG3FUb81-4" value="" style="endArrow=none;html=1;shadow=1;strokeWidth=1;fontFamily=Comic Sans MS;fontSize=11;sketch=1;fontStyle=1;fillColor=#ffff88;strokeColor=#CC6600;" edge="1" parent="2Ph8JsTVAdlHPG3FUb81-16">
          <mxGeometry width="50" height="50" relative="1" as="geometry">
            <mxPoint x="160" y="30" as="sourcePoint" />
            <mxPoint x="160" as="targetPoint" />
          </mxGeometry>
        </mxCell>
        <mxCell id="2Ph8JsTVAdlHPG3FUb81-5" value="" style="endArrow=none;html=1;shadow=1;strokeWidth=1;fontFamily=Comic Sans MS;fontSize=11;sketch=1;fontStyle=1;fillColor=#ffff88;strokeColor=#CC6600;" edge="1" parent="2Ph8JsTVAdlHPG3FUb81-16">
          <mxGeometry width="50" height="50" relative="1" as="geometry">
            <mxPoint x="190" y="30" as="sourcePoint" />
            <mxPoint x="190" as="targetPoint" />
          </mxGeometry>
        </mxCell>
        <mxCell id="2Ph8JsTVAdlHPG3FUb81-6" value="" style="endArrow=none;html=1;shadow=1;strokeWidth=1;fontFamily=Comic Sans MS;fontSize=11;sketch=1;fontStyle=1;fillColor=#ffff88;strokeColor=#CC6600;" edge="1" parent="2Ph8JsTVAdlHPG3FUb81-16">
          <mxGeometry width="50" height="50" relative="1" as="geometry">
            <mxPoint x="220" y="30" as="sourcePoint" />
            <mxPoint x="220" as="targetPoint" />
          </mxGeometry>
        </mxCell>
        <mxCell id="2Ph8JsTVAdlHPG3FUb81-7" value="" style="endArrow=none;html=1;shadow=1;strokeWidth=1;fontFamily=Comic Sans MS;fontSize=11;sketch=1;fontStyle=1;fillColor=#ffff88;strokeColor=#CC6600;" edge="1" parent="2Ph8JsTVAdlHPG3FUb81-16">
          <mxGeometry width="50" height="50" relative="1" as="geometry">
            <mxPoint x="250" y="30" as="sourcePoint" />
            <mxPoint x="250" as="targetPoint" />
          </mxGeometry>
        </mxCell>
        <mxCell id="2Ph8JsTVAdlHPG3FUb81-9" value="1" style="text;html=1;align=center;verticalAlign=middle;resizable=0;points=[];autosize=1;fontSize=11;fontFamily=Comic Sans MS;sketch=1;fontStyle=1;shadow=1;fillColor=#ffff88;" vertex="1" parent="2Ph8JsTVAdlHPG3FUb81-16">
          <mxGeometry x="45" y="6" width="20" height="20" as="geometry" />
        </mxCell>
        <mxCell id="2Ph8JsTVAdlHPG3FUb81-10" value="1" style="text;html=1;align=center;verticalAlign=middle;resizable=0;points=[];autosize=1;fontSize=11;fontFamily=Comic Sans MS;sketch=1;fontStyle=1;shadow=1;fillColor=#ffff88;" vertex="1" parent="2Ph8JsTVAdlHPG3FUb81-16">
          <mxGeometry x="106" y="6" width="20" height="20" as="geometry" />
        </mxCell>
        <mxCell id="2Ph8JsTVAdlHPG3FUb81-11" value="1" style="text;html=1;align=center;verticalAlign=middle;resizable=0;points=[];autosize=1;fontSize=11;fontFamily=Comic Sans MS;sketch=1;fontStyle=1;shadow=1;fillColor=#ffff88;" vertex="1" parent="2Ph8JsTVAdlHPG3FUb81-16">
          <mxGeometry x="163.5" y="6" width="20" height="20" as="geometry" />
        </mxCell>
        <mxCell id="2Ph8JsTVAdlHPG3FUb81-12" value="1" style="text;html=1;align=center;verticalAlign=middle;resizable=0;points=[];autosize=1;fontSize=11;fontFamily=Comic Sans MS;sketch=1;fontStyle=1;shadow=1;fillColor=#ffff88;" vertex="1" parent="2Ph8JsTVAdlHPG3FUb81-16">
          <mxGeometry x="136" y="6" width="20" height="20" as="geometry" />
        </mxCell>
        <mxCell id="2Ph8JsTVAdlHPG3FUb81-13" value="0" style="text;html=1;align=center;verticalAlign=middle;resizable=0;points=[];autosize=1;fontSize=11;fontFamily=Comic Sans MS;sketch=1;fontStyle=1;shadow=1;fillColor=#ffff88;" vertex="1" parent="2Ph8JsTVAdlHPG3FUb81-16">
          <mxGeometry x="76" y="6" width="20" height="20" as="geometry" />
        </mxCell>
        <mxCell id="2Ph8JsTVAdlHPG3FUb81-14" value="0" style="text;html=1;align=center;verticalAlign=middle;resizable=0;points=[];autosize=1;fontSize=11;fontFamily=Comic Sans MS;sketch=1;fontStyle=1;shadow=1;fillColor=#ffff88;" vertex="1" parent="2Ph8JsTVAdlHPG3FUb81-16">
          <mxGeometry x="195" y="6" width="20" height="20" as="geometry" />
        </mxCell>
        <mxCell id="2Ph8JsTVAdlHPG3FUb81-15" value="0" style="text;html=1;align=center;verticalAlign=middle;resizable=0;points=[];autosize=1;fontSize=11;fontFamily=Comic Sans MS;sketch=1;fontStyle=1;shadow=1;fillColor=#ffff88;" vertex="1" parent="2Ph8JsTVAdlHPG3FUb81-16">
          <mxGeometry x="226" y="6" width="20" height="20" as="geometry" />
        </mxCell>
        <mxCell id="2Ph8JsTVAdlHPG3FUb81-24" value="1" style="text;html=1;align=center;verticalAlign=middle;resizable=0;points=[];autosize=1;fontSize=11;fontFamily=Comic Sans MS;sketch=1;fontStyle=1;shadow=1;fillColor=#ffff88;" vertex="1" parent="2Ph8JsTVAdlHPG3FUb81-16">
          <mxGeometry x="256" y="6" width="20" height="20" as="geometry" />
        </mxCell>
        <mxCell id="2Ph8JsTVAdlHPG3FUb81-25" value="" style="endArrow=none;html=1;shadow=1;strokeWidth=1;fontFamily=Comic Sans MS;fontSize=11;fontColor=#000000;sketch=1;fillColor=#ffff88;strokeColor=#CC6600;" edge="1" parent="2Ph8JsTVAdlHPG3FUb81-26">
          <mxGeometry width="50" height="50" relative="1" as="geometry">
            <mxPoint x="310" y="30" as="sourcePoint" />
            <mxPoint x="310" as="targetPoint" />
          </mxGeometry>
        </mxCell>
        <mxCell id="2Ph8JsTVAdlHPG3FUb81-27" style="rounded=0;sketch=1;orthogonalLoop=1;jettySize=auto;html=1;shadow=1;endArrow=classic;endFill=0;strokeWidth=1;fontFamily=Comic Sans MS;fontSize=11;fontColor=#000000;fillColor=#cce5ff;strokeColor=#CC6600;" edge="1" parent="RUXuNK1ZQrjjFl1TKabH-1">
          <mxGeometry relative="1" as="geometry">
            <mxPoint x="520" y="460" as="targetPoint" />
            <mxPoint x="460" y="340" as="sourcePoint" />
          </mxGeometry>
        </mxCell>
        <mxCell id="2Ph8JsTVAdlHPG3FUb81-30" value="url A" style="pointerEvents=1;shadow=0;dashed=0;html=1;strokeColor=#36393d;fillColor=#ffff88;labelPosition=center;verticalLabelPosition=bottom;verticalAlign=top;outlineConnect=0;align=center;shape=mxgraph.office.concepts.link;labelBackgroundColor=none;sketch=1;fontFamily=Comic Sans MS;fontSize=11;fontColor=#CC6600;" vertex="1" parent="RUXuNK1ZQrjjFl1TKabH-1">
          <mxGeometry x="340" y="292" width="50" height="20" as="geometry" />
        </mxCell>
        <mxCell id="2Ph8JsTVAdlHPG3FUb81-31" value="url B" style="pointerEvents=1;shadow=0;dashed=0;html=1;strokeColor=#36393d;fillColor=#ffff88;labelPosition=center;verticalLabelPosition=bottom;verticalAlign=top;outlineConnect=0;align=center;shape=mxgraph.office.concepts.link;labelBackgroundColor=none;sketch=1;fontFamily=Comic Sans MS;fontSize=11;fontColor=#CC6600;" vertex="1" parent="RUXuNK1ZQrjjFl1TKabH-1">
          <mxGeometry x="427" y="293" width="50" height="20" as="geometry" />
        </mxCell>
      </root>
    </mxGraphModel>
  </diagram>
  <diagram id="YEmTv1sEaMP64oD4aA4R" name="textanalyzer">
    <mxGraphModel dx="2062" dy="1122" grid="1" gridSize="10" guides="1" tooltips="1" connect="1" arrows="1" fold="1" page="1" pageScale="1" pageWidth="827" pageHeight="1169" math="0" shadow="0">
      <root>
        <mxCell id="ZkMCkAlsmj6TtrJYu-9H-0" />
        <mxCell id="ZkMCkAlsmj6TtrJYu-9H-1" parent="ZkMCkAlsmj6TtrJYu-9H-0" />
        <mxCell id="ZkMCkAlsmj6TtrJYu-9H-10" value="" style="group" vertex="1" connectable="0" parent="ZkMCkAlsmj6TtrJYu-9H-1">
          <mxGeometry x="535" y="280" width="50" height="315" as="geometry" />
        </mxCell>
        <mxCell id="ZkMCkAlsmj6TtrJYu-9H-5" style="edgeStyle=none;rounded=0;sketch=1;orthogonalLoop=1;jettySize=auto;html=1;entryX=0.5;entryY=0;entryDx=0;entryDy=0;entryPerimeter=0;shadow=1;endArrow=classic;endFill=0;strokeColor=#CC6600;strokeWidth=1;fontFamily=Comic Sans MS;fontSize=11;fontColor=#CC6600;fontStyle=1" edge="1" parent="ZkMCkAlsmj6TtrJYu-9H-10" target="ZkMCkAlsmj6TtrJYu-9H-3">
          <mxGeometry relative="1" as="geometry">
            <mxPoint x="25" y="70" as="sourcePoint" />
          </mxGeometry>
        </mxCell>
        <mxCell id="ZkMCkAlsmj6TtrJYu-9H-2" value="lowercase" style="aspect=fixed;pointerEvents=1;shadow=0;dashed=0;html=1;strokeColor=#36393d;labelPosition=center;verticalLabelPosition=bottom;verticalAlign=top;align=center;fillColor=#ffff88;shape=mxgraph.mscae.enterprise.filter;labelBackgroundColor=none;sketch=1;fontFamily=Comic Sans MS;fontSize=11;fontStyle=1" vertex="1" parent="ZkMCkAlsmj6TtrJYu-9H-10">
          <mxGeometry width="50" height="45" as="geometry" />
        </mxCell>
        <mxCell id="ZkMCkAlsmj6TtrJYu-9H-7" style="edgeStyle=none;rounded=0;sketch=1;orthogonalLoop=1;jettySize=auto;html=1;shadow=1;endArrow=classic;endFill=0;strokeColor=#CC6600;strokeWidth=1;fontFamily=Comic Sans MS;fontSize=11;fontColor=#CC6600;fontStyle=1" edge="1" parent="ZkMCkAlsmj6TtrJYu-9H-10" target="ZkMCkAlsmj6TtrJYu-9H-4">
          <mxGeometry relative="1" as="geometry">
            <mxPoint x="25" y="160" as="sourcePoint" />
          </mxGeometry>
        </mxCell>
        <mxCell id="ZkMCkAlsmj6TtrJYu-9H-3" value="stemmer" style="aspect=fixed;pointerEvents=1;shadow=0;dashed=0;html=1;strokeColor=#36393d;labelPosition=center;verticalLabelPosition=bottom;verticalAlign=top;align=center;fillColor=#ffff88;shape=mxgraph.mscae.enterprise.filter;labelBackgroundColor=none;sketch=1;fontFamily=Comic Sans MS;fontSize=11;fontStyle=1" vertex="1" parent="ZkMCkAlsmj6TtrJYu-9H-10">
          <mxGeometry y="90" width="50" height="45" as="geometry" />
        </mxCell>
        <mxCell id="ZkMCkAlsmj6TtrJYu-9H-9" style="edgeStyle=none;rounded=0;sketch=1;orthogonalLoop=1;jettySize=auto;html=1;shadow=1;endArrow=classic;endFill=0;strokeColor=#CC6600;strokeWidth=1;fontFamily=Comic Sans MS;fontSize=11;fontColor=#CC6600;" edge="1" parent="ZkMCkAlsmj6TtrJYu-9H-10" target="ZkMCkAlsmj6TtrJYu-9H-8">
          <mxGeometry relative="1" as="geometry">
            <mxPoint x="25" y="250" as="sourcePoint" />
          </mxGeometry>
        </mxCell>
        <mxCell id="ZkMCkAlsmj6TtrJYu-9H-4" value="stop words" style="aspect=fixed;pointerEvents=1;shadow=0;dashed=0;html=1;strokeColor=#36393d;labelPosition=center;verticalLabelPosition=bottom;verticalAlign=top;align=center;fillColor=#ffff88;shape=mxgraph.mscae.enterprise.filter;labelBackgroundColor=none;sketch=1;fontFamily=Comic Sans MS;fontSize=11;fontStyle=1" vertex="1" parent="ZkMCkAlsmj6TtrJYu-9H-10">
          <mxGeometry y="180" width="50" height="45" as="geometry" />
        </mxCell>
        <mxCell id="ZkMCkAlsmj6TtrJYu-9H-8" value="..." style="aspect=fixed;pointerEvents=1;shadow=0;dashed=0;html=1;strokeColor=#36393d;labelPosition=center;verticalLabelPosition=bottom;verticalAlign=top;align=center;fillColor=#ffff88;shape=mxgraph.mscae.enterprise.filter;labelBackgroundColor=none;sketch=1;fontFamily=Comic Sans MS;fontSize=11;fontStyle=1" vertex="1" parent="ZkMCkAlsmj6TtrJYu-9H-10">
          <mxGeometry y="270" width="50" height="45" as="geometry" />
        </mxCell>
        <mxCell id="ZkMCkAlsmj6TtrJYu-9H-11" value="Token Filters" style="text;html=1;align=center;verticalAlign=middle;resizable=0;points=[];autosize=1;fontSize=13;fontFamily=Comic Sans MS;fontColor=#CC6600;fontStyle=1" vertex="1" parent="ZkMCkAlsmj6TtrJYu-9H-1">
          <mxGeometry x="510" y="190" width="100" height="20" as="geometry" />
        </mxCell>
        <mxCell id="ZkMCkAlsmj6TtrJYu-9H-13" value="Character Filters" style="text;html=1;align=center;verticalAlign=middle;resizable=0;points=[];autosize=1;fontSize=13;fontFamily=Comic Sans MS;fontColor=#CC6600;fontStyle=1" vertex="1" parent="ZkMCkAlsmj6TtrJYu-9H-1">
          <mxGeometry x="140" y="190" width="120" height="20" as="geometry" />
        </mxCell>
        <mxCell id="ZkMCkAlsmj6TtrJYu-9H-18" style="edgeStyle=orthogonalEdgeStyle;rounded=0;sketch=1;orthogonalLoop=1;jettySize=auto;html=1;shadow=1;endArrow=classic;endFill=0;strokeColor=#CC6600;strokeWidth=1;fontFamily=Comic Sans MS;fontSize=13;fontColor=#CC6600;curved=1;dashed=1;dashPattern=1 2;" edge="1" parent="ZkMCkAlsmj6TtrJYu-9H-1">
          <mxGeometry relative="1" as="geometry">
            <mxPoint x="200" y="520" as="sourcePoint" />
            <mxPoint x="391" y="360" as="targetPoint" />
            <Array as="points">
              <mxPoint x="200" y="570" />
              <mxPoint x="295" y="570" />
              <mxPoint x="295" y="310" />
              <mxPoint x="391" y="310" />
            </Array>
          </mxGeometry>
        </mxCell>
        <mxCell id="ZkMCkAlsmj6TtrJYu-9H-16" value="Tokenizer" style="text;html=1;align=center;verticalAlign=middle;resizable=0;points=[];autosize=1;fontSize=13;fontFamily=Comic Sans MS;fontColor=#CC6600;fontStyle=1" vertex="1" parent="ZkMCkAlsmj6TtrJYu-9H-1">
          <mxGeometry x="355" y="190" width="80" height="20" as="geometry" />
        </mxCell>
        <mxCell id="ZkMCkAlsmj6TtrJYu-9H-19" style="edgeStyle=orthogonalEdgeStyle;curved=1;rounded=0;sketch=1;orthogonalLoop=1;jettySize=auto;html=1;shadow=1;dashed=1;dashPattern=1 2;endArrow=classic;endFill=0;strokeColor=#CC6600;strokeWidth=1;fontFamily=Comic Sans MS;fontSize=13;fontColor=#CC6600;" edge="1" parent="ZkMCkAlsmj6TtrJYu-9H-1">
          <mxGeometry relative="1" as="geometry">
            <mxPoint x="391" y="490" as="sourcePoint" />
            <mxPoint x="560" y="270" as="targetPoint" />
            <Array as="points">
              <mxPoint x="391" y="530" />
              <mxPoint x="475" y="530" />
              <mxPoint x="475" y="230" />
              <mxPoint x="560" y="230" />
            </Array>
          </mxGeometry>
        </mxCell>
        <mxCell id="ZkMCkAlsmj6TtrJYu-9H-17" value="simple tokenizer" style="verticalLabelPosition=bottom;aspect=fixed;html=1;verticalAlign=top;strokeColor=none;align=center;outlineConnect=0;shape=mxgraph.citrix.process;shadow=1;labelBackgroundColor=none;sketch=1;fontFamily=Comic Sans MS;fontSize=13;fontColor=#CC6600;fontStyle=1" vertex="1" parent="ZkMCkAlsmj6TtrJYu-9H-1">
          <mxGeometry x="365" y="388" width="52" height="62" as="geometry" />
        </mxCell>
        <mxCell id="ZkMCkAlsmj6TtrJYu-9H-20" value="" style="group" vertex="1" connectable="0" parent="ZkMCkAlsmj6TtrJYu-9H-1">
          <mxGeometry x="175" y="360" width="50" height="135" as="geometry" />
        </mxCell>
        <mxCell id="ZkMCkAlsmj6TtrJYu-9H-15" style="edgeStyle=none;rounded=0;sketch=1;orthogonalLoop=1;jettySize=auto;html=1;shadow=1;endArrow=classic;endFill=0;strokeColor=#CC6600;strokeWidth=1;fontFamily=Comic Sans MS;fontSize=11;fontColor=#CC6600;" edge="1" parent="ZkMCkAlsmj6TtrJYu-9H-20" target="ZkMCkAlsmj6TtrJYu-9H-14">
          <mxGeometry relative="1" as="geometry">
            <mxPoint x="25" y="70" as="sourcePoint" />
          </mxGeometry>
        </mxCell>
        <mxCell id="ZkMCkAlsmj6TtrJYu-9H-12" value="html" style="aspect=fixed;pointerEvents=1;shadow=0;dashed=0;html=1;strokeColor=#36393d;labelPosition=center;verticalLabelPosition=bottom;verticalAlign=top;align=center;fillColor=#ffff88;shape=mxgraph.mscae.enterprise.filter;labelBackgroundColor=none;sketch=1;fontFamily=Comic Sans MS;fontSize=11;fontStyle=1" vertex="1" parent="ZkMCkAlsmj6TtrJYu-9H-20">
          <mxGeometry width="50" height="45" as="geometry" />
        </mxCell>
        <mxCell id="ZkMCkAlsmj6TtrJYu-9H-14" value="..." style="aspect=fixed;pointerEvents=1;shadow=0;dashed=0;html=1;strokeColor=#36393d;labelPosition=center;verticalLabelPosition=bottom;verticalAlign=top;align=center;fillColor=#ffff88;shape=mxgraph.mscae.enterprise.filter;labelBackgroundColor=none;sketch=1;fontFamily=Comic Sans MS;fontSize=11;fontStyle=1" vertex="1" parent="ZkMCkAlsmj6TtrJYu-9H-20">
          <mxGeometry y="90" width="50" height="45" as="geometry" />
        </mxCell>
      </root>
    </mxGraphModel>
  </diagram>
</mxfile>
